<?xml version="1.0" standalone="no"?>
<!DOCTYPE svg PUBLIC "-//W3C//DTD SVG 20010904//EN"
 "http://www.w3.org/TR/2001/REC-SVG-20010904/DTD/svg10.dtd">
<svg version="1.0" xmlns="http://www.w3.org/2000/svg"
 width="500.000000pt" height="500.000000pt" viewBox="0 0 500.000000 500.000000"
 preserveAspectRatio="xMidYMid meet">

<g transform="translate(0.000000,500.000000) scale(0.100000,-0.100000)"
fill="#000000" stroke="none">
<path d="M1333 2688 c-4 -7 -35 -89 -69 -183 l-62 -170 50 -3 c62 -4 78 2 78
28 0 18 6 20 69 20 65 0 70 -2 73 -22 3 -23 4 -23 183 -23 170 0 182 1 216 23
49 30 70 77 70 158 0 141 -82 193 -286 182 l-60 -3 -3 -160 -3 -160 -35 95
c-19 52 -46 125 -60 163 l-26 67 -63 0 c-40 0 -67 -5 -72 -12z m474 -104 c7
-10 13 -42 13 -73 0 -68 -18 -91 -72 -91 l-38 0 0 96 0 97 42 -6 c23 -3 48
-14 55 -23z m-388 -48 c6 -24 13 -51 17 -60 5 -13 -1 -16 -36 -16 -36 0 -41 3
-35 18 3 9 11 36 18 60 6 23 14 42 18 42 4 0 12 -20 18 -44z"/>
<path d="M1930 2689 c0 -6 28 -89 61 -185 l62 -175 70 3 70 3 61 174 61 175 3
-177 2 -177 60 0 60 0 -2 183 -3 182 -117 3 -117 3 -39 -123 -39 -123 -27 90
c-53 174 -39 155 -107 155 -35 0 -59 -4 -59 -11z"/>
<path d="M2543 2684 c-41 -21 -62 -44 -79 -91 -26 -74 -13 -163 30 -211 81
-91 257 -74 308 28 l18 35 0 -57 0 -58 160 0 160 0 0 45 0 45 -100 0 -100 0 0
25 c0 25 1 25 85 25 l85 0 0 45 0 45 -85 0 c-84 0 -85 0 -85 25 l0 25 100 0
100 0 0 45 0 46 -157 -3 -158 -3 -3 -60 -3 -60 -19 43 c-15 33 -29 47 -62 62
-53 24 -150 26 -195 4z m145 -86 c5 -7 12 -22 14 -33 3 -17 11 -20 61 -20 l57
0 0 -32 0 -33 -53 0 c-49 0 -53 -2 -64 -29 -14 -37 -62 -50 -98 -27 -38 25
-47 132 -14 172 14 17 83 18 97 2z"/>
<path d="M3370 2678 c-5 -13 -36 -96 -69 -185 l-59 -163 64 0 c57 0 63 2 66
23 3 20 9 22 69 25 64 3 67 2 73 -23 l6 -25 120 0 120 0 0 185 0 185 -60 0
-60 0 -2 -170 -3 -169 -61 167 -60 167 -67 3 c-62 3 -68 1 -77 -20z m110 -210
c0 -5 -16 -8 -35 -8 -40 0 -42 4 -19 81 l16 54 19 -60 c10 -33 19 -63 19 -67z"/>
<path d="M710 490 c0 -5 5 -10 11 -10 5 0 7 5 4 10 -3 6 -8 10 -11 10 -2 0 -4
-4 -4 -10z"/>
<path d="M775 460 c-3 -5 -2 -10 4 -10 5 0 13 5 16 10 3 6 2 10 -4 10 -5 0
-13 -4 -16 -10z"/>
<path d="M4750 440 c0 -5 5 -10 10 -10 6 0 10 5 10 10 0 6 -4 10 -10 10 -5 0
-10 -4 -10 -10z"/>
<path d="M4765 410 c3 -5 8 -10 11 -10 2 0 4 5 4 10 0 6 -5 10 -11 10 -5 0 -7
-4 -4 -10z"/>
<path d="M4232 118 c-13 -13 -16 -38 -4 -38 4 0 12 11 19 25 12 27 5 33 -15
13z"/>
<path d="M1371 73 c7 -12 15 -20 18 -17 3 2 -3 12 -13 22 -17 16 -18 16 -5 -5z"/>
<path d="M2782 65 c0 -16 2 -22 5 -12 2 9 2 23 0 30 -3 6 -5 -1 -5 -18z"/>
<path d="M4147 70 c3 -11 9 -17 14 -14 14 8 10 34 -5 34 -9 0 -12 -7 -9 -20z"/>
<path d="M4084 45 c-1 -15 3 -25 12 -25 15 0 17 10 8 34 -9 24 -19 19 -20 -9z"/>
<path d="M180 41 c0 -21 13 -41 26 -41 8 0 14 5 14 10 0 6 -6 10 -12 10 -10 0
-10 2 0 9 11 7 10 10 -3 15 -22 8 -25 8 -25 -3z"/>
<path d="M3587 43 c-3 -5 -1 -17 4 -28 7 -17 8 -17 8 8 1 27 -4 34 -12 20z"/>
<path d="M3670 14 c0 -17 22 -14 28 4 2 7 -3 12 -12 12 -9 0 -16 -7 -16 -16z"/>
<path d="M3520 10 c0 -5 7 -10 16 -10 8 0 12 5 9 10 -3 6 -10 10 -16 10 -5 0
-9 -4 -9 -10z"/>
<path d="M4295 10 c-3 -5 -1 -10 4 -10 6 0 11 5 11 10 0 6 -2 10 -4 10 -3 0
-8 -4 -11 -10z"/>
</g>
</svg>
